<?xml version="1.0" encoding="utf-8"?>
<!-- Generator: Adobe Illustrator 19.0.0, SVG Export Plug-In . SVG Version: 6.00 Build 0)  -->
<svg version="1.1" id="Layer_1" xmlns="http://www.w3.org/2000/svg" xmlns:xlink="http://www.w3.org/1999/xlink" x="0px" y="0px"
	 viewBox="-504 361 250 106.7" style="enable-background:new -504 361 250 106.7;" xml:space="preserve">
<style type="text/css">
	.st0{fill:#FFFFFF;}
	.st1{fill:url(#Combined-Shape_1_);}
	.st2{fill:url(#Path_2_);}
</style>
<path id="Path" class="st0" d="M-346,361c4.8,0,9.2,2.8,11,7.2c1.8,4.3,0.8,9.3-2.6,12.6c-3.4,3.3-8.5,4.3-13,2.5
	c-4.5-1.8-7.4-6-7.3-10.7c0-3.1,1.3-6,3.5-8.2S-349.2,361-346,361"/>
<radialGradient id="Combined-Shape_1_" cx="-1012.3365" cy="811.2723" r="2.8949" gradientTransform="matrix(-54.8817 26.6518 26.6518 54.8817 -77528.8359 -17157.9277)" gradientUnits="userSpaceOnUse">
	<stop  offset="0" style="stop-color:#FFFFFF"/>
	<stop  offset="0.2895" style="stop-color:#E0C479"/>
	<stop  offset="0.5165" style="stop-color:#C7AA59"/>
	<stop  offset="0.752" style="stop-color:#8D6F2F"/>
	<stop  offset="1" style="stop-color:#8D6F2F"/>
</radialGradient>
<path id="Combined-Shape" class="st1" d="M-423.5,467.7V387h34.8c8-0.2,15.8,2.9,21.4,8.4c5.7,5.5,8.8,13.1,8.5,20.9
	c0,14.2-11.6,29.3-28.9,29.3h-14.7v22.1H-423.5z M-402.2,425.3h14c4.9,0,8.3-3.9,8.3-9.5c0-6.5-4.3-9.4-8.6-9.4h-13.8V425.3z
	 M-464.4,469.2c-18.9,0-39.6-12.5-39.6-41.9c0-24.5,15.3-41.9,39.6-41.9c25,0,39,20.2,39,43.4c0,2.8-0.2,5.5-0.4,6.6h-56.4
	c1.3,8.3,8.7,14.3,17.3,14.1c6.7,0.1,12.9-3.4,16-9.2l21.2,3.3C-432.9,459.5-447.1,469.2-464.4,469.2z M-464.4,405
	c-8.4-0.3-15.8,5.3-17.4,13.3h34.8C-448,412.1-454.5,405-464.4,405z"/>
<radialGradient id="Path_2_" cx="-1013.4732" cy="811.6633" r="2.9224" gradientTransform="matrix(-52.7229 25.9815 25.9815 52.7229 -74869.7734 -16074.7471)" gradientUnits="userSpaceOnUse">
	<stop  offset="0" style="stop-color:#FFFFFF"/>
	<stop  offset="0.1612" style="stop-color:#E0C479"/>
	<stop  offset="0.3191" style="stop-color:#C7AA59"/>
	<stop  offset="0.4777" style="stop-color:#8D6F2F"/>
	<stop  offset="1" style="stop-color:#8D6F2F"/>
</radialGradient>
<polygon id="Path_1_" class="st2" points="-283.3,424.9 -258.1,387 -282.9,387 -295.4,408.6 -307.1,387 -331.5,387 -307.6,424.9 
	-335.4,464.9 -335.4,387 -356.6,387 -356.6,467.7 -337.4,467.7 -337.4,467.7 -311.6,467.7 -295.4,443.3 -279.2,467.7 -254,467.7 "/>
</svg>
