<?xml version="1.0" encoding="utf-8"?>
<!-- Generator: Adobe Illustrator 19.0.0, SVG Export Plug-In . SVG Version: 6.00 Build 0)  -->
<svg version="1.1" xmlns="http://www.w3.org/2000/svg" xmlns:xlink="http://www.w3.org/1999/xlink" x="0px" y="0px"
	 viewBox="-482 336 265.2 130" style="enable-background:new -482 336 265.2 130;" xml:space="preserve">
<path d="M-327.8,384.4h-6.2v-7.7h20.5c11.1,0,17.4,5.7,17.4,14.6c0,9.1-6.6,14.8-17.1,14.8h-5.5v11.5h7.2v7.7H-334v-7.7h6.3v-33.3
	H-327.8z M-318.7,398.5h6c5.1,0,7.9-3.2,7.9-7.1c0-4-2.9-7.1-7.9-7.1h-6V398.5z M-287.3,384.4h-5.5v-7.7h19.6c12.2,0,16,7.2,16,12.6
	c0,4.5-2.5,8.2-5.9,9.9c4.9,2,7.7,7.1,7.7,11.5c0,10.6-8.3,14.9-16.3,14.9h-21.7V418h6.3v-33.6H-287.3z M-278.4,417.9h5.7
	c4.6,0,7.9-2.6,7.9-6.9c0-3.7-2.5-6.9-7.9-6.9h-5.7V417.9z M-278.4,396.3h5.4c4,0,6.8-2.3,6.8-6c0-3.5-2.6-5.9-6.8-5.9h-5.4V396.3z
	 M-226.8,384.3c-1.5-0.6-3.7-1.2-5.9-1.2c-6,0-7.9,3.4-7.9,6.2c0,3.5,2.3,4.6,5.1,5.4l5.2,1.4c6.3,1.8,13.4,4.2,13.4,14.2
	c0,9.2-5.5,15.9-17.9,15.9c-4.8,0-9.7-0.6-15.4-2.6v-12.8h8.9v6.3c2.3,1.1,4.8,1.2,7.2,1.2c5.2,0,7.7-2.8,7.7-6.5
	c0-2.5-1.2-4.3-7.1-6l-4.8-1.4c-8.9-2.6-11.9-6.5-11.9-13.9c0-7.7,4.8-14.5,16.9-14.5c5.2,0,10.5,0.9,14.2,2.6v11.6h-8.2v-5.9
	L-226.8,384.3L-226.8,384.3z M-417,336c-35.9,0-65,29.1-65,65s29.1,65,65,65s65-29.1,65-65S-381.1,336-417,336z M-401.6,411.8
	c0,4-3.7,9.3-7.9,9.3h-2.1v16h-27v-18.9c-12-1.9-21.6-11.5-21.6-25.6c0-16.7,12.8-27.5,29-27.5h19.7l16.3,36h-6.4V411.8z
	 M-381.6,401.1v10.6c0,4.8-3.1,9.4-6.2,9.4h-2.8v16h-10V419c6,0.1,10-2.4,10-8.3v-9.5h6.7l-16.2-36h10.6l16.1,36H-381.6z
	 M-410.2,389.3c0,3.6-2.9,6.4-6.4,6.4c-3.6,0-6.4-2.9-6.5-6.4c0-3.6,2.9-6.4,6.4-6.5c0,0,0,0,0,0
	C-413.1,382.9-410.2,385.7-410.2,389.3z"/>
</svg>
