<?xml version="1.0" encoding="utf-8"?>
<!-- Generator: Adobe Illustrator 19.0.0, SVG Export Plug-In . SVG Version: 6.00 Build 0)  -->
<svg version="1.1" id="Layer_1" xmlns="http://www.w3.org/2000/svg" xmlns:xlink="http://www.w3.org/1999/xlink" x="0px" y="0px"
	 viewBox="-506 391 200 62.1" style="enable-background:new -506 391 200 62.1;" xml:space="preserve">
<style type="text/css">
	.st0{fill:#6C3C97;}
</style>
<path class="st0" d="M-458.1,411.5c0-11.3-11-20.5-24.5-20.5H-506v61.2h16.3v-20.4h5l14.7,20.4h18.5l-17.2-24
	C-462.4,424.9-458.4,418.5-458.1,411.5 M-484.6,421.7h-5.1v-20.5h5.1c5.7,0,10.2,4.6,10.2,10.2
	C-474.4,417.1-478.9,421.7-484.6,421.7 M-433.1,403.3c-13.8,0.1-24.9,11.3-24.8,25c0.1,13.8,11.3,24.9,25,24.8
	c13.7-0.1,24.8-11.2,24.8-24.9C-408,414.4-419.2,403.2-433.1,403.3C-433,403.3-433,403.3-433.1,403.3L-433.1,403.3 M-433.1,441.4
	c-4.3,0-8-5.9-8-13s3.7-13,8-13c4.4,0,8.1,5.9,8.1,13C-425.1,435.5-428.8,441.4-433.1,441.4 M-322.2,404.3v30.9
	c-1.5,3.2-4.8,5.3-8.3,5.2c-4,0-5.9-2.3-5.9-10v-26.1h-33.4l-18.8,18.8v-18.9h-16.3v47.9h16.3v-19.3l19.6,19.4h20.5l-24.9-24.9
	l20.6-20.6v28.5c0,9.4,5.6,18.1,20,18.1c6.1-0.2,11.9-2.8,16-7.3l7.3,6.2h3.5v-47.9H-322.2"/>
</svg>
